<?xml version="1.0" encoding="UTF-8" standalone="no"?>
<!-- Created with Inkscape (http://www.inkscape.org/) -->

<svg
   xmlns:dc="http://purl.org/dc/elements/1.1/"
   xmlns:cc="http://creativecommons.org/ns#"
   xmlns:rdf="http://www.w3.org/1999/02/22-rdf-syntax-ns#"
   xmlns:svg="http://www.w3.org/2000/svg"
   xmlns="http://www.w3.org/2000/svg"
   xmlns:sodipodi="http://sodipodi.sourceforge.net/DTD/sodipodi-0.dtd"
   xmlns:inkscape="http://www.inkscape.org/namespaces/inkscape"
   width="210mm"
   height="297mm"
   viewBox="0 0 210 297"
   version="1.1"
   id="svg8"
   inkscape:version="0.92.4 (5da689c313, 2019-01-14)"
   sodipodi:docname="drawing.svg">
  <defs
     id="defs2" />
  <sodipodi:namedview
     id="base"
     pagecolor="#ffffff"
     bordercolor="#666666"
     borderopacity="1.0"
     inkscape:pageopacity="0.0"
     inkscape:pageshadow="2"
     inkscape:zoom="0.98994949"
     inkscape:cx="472.95876"
     inkscape:cy="683.71169"
     inkscape:document-units="mm"
     inkscape:current-layer="layer1"
     showgrid="false"
     inkscape:window-width="1920"
     inkscape:window-height="1017"
     inkscape:window-x="1912"
     inkscape:window-y="57"
     inkscape:window-maximized="1" />
  <metadata
     id="metadata5">
    <rdf:RDF>
      <cc:Work
         rdf:about="">
        <dc:format>image/svg+xml</dc:format>
        <dc:type
           rdf:resource="http://purl.org/dc/dcmitype/StillImage" />
        <dc:title></dc:title>
      </cc:Work>
    </rdf:RDF>
  </metadata>
  <g
     inkscape:label="Layer 1"
     inkscape:groupmode="layer"
     id="layer1">
    <rect
       id="rect3719"
       width="122.43759"
       height="122.43763"
       x="36.312393"
       y="40.191837"
       style="fill:#74d4ff;fill-opacity:1;stroke-width:0.4076401"
       inkscape:export-xdpi="212.43141"
       inkscape:export-ydpi="212.43141" />
    <path
       style="fill:#0281ca;fill-opacity:0.41919197;stroke:#000000;stroke-width:0;stroke-miterlimit:4;stroke-dasharray:none;stroke-opacity:0"
       d="M 345.74388,515.70053 C 305.62589,461.58638 270.84701,415.5132 270.9772,415.38302 c 0.19166,-0.19167 35.19863,11.31216 78.82603,37.59924 l 6.91929,1.90601 10.01436,1.0783 9.19876,0.24952 41.94194,-21.67002 42.53685,-18.97944 0.48988,-62.39529 c 0.27054,-34.45805 -0.80413,-62.73836 -0.6077,-62.71413 0.19642,0.0242 32.07575,40.13359 69.66369,89.00323 l 68.34171,88.8539 0.5186,72.88778 0.51859,72.88777 h -90.32677 -90.32675 z"
       id="path4606"
       inkscape:connector-curvature="0"
       transform="scale(0.26458333)"
       sodipodi:nodetypes="scscccccscscccccs"
       inkscape:export-xdpi="212.43141"
       inkscape:export-ydpi="212.43141" />
    <g
       id="g4584"
       inkscape:export-xdpi="212.43141"
       inkscape:export-ydpi="212.43141"
       transform="translate(-10.205357,-13.229167)">
      <path
         sodipodi:nodetypes="cccc"
         inkscape:connector-curvature="0"
         id="path4526"
         d="m 109.56866,134.13229 22.71246,-10.9 V 89.738915 l -22.71343,10.511565"
         style="fill:none;stroke:#000000;stroke-width:0;stroke-linecap:butt;stroke-linejoin:miter;stroke-miterlimit:4;stroke-dasharray:none;stroke-opacity:0" />
      <path
         sodipodi:nodetypes="cccc"
         inkscape:connector-curvature="0"
         id="path4530"
         d="m 104.51036,134.13229 -22.712474,-10.9 V 89.738914 l 22.713444,10.511566"
         style="fill:none;stroke:#000000;stroke-width:0;stroke-linecap:butt;stroke-linejoin:miter;stroke-miterlimit:4;stroke-dasharray:none;stroke-opacity:1" />
      <path
         inkscape:connector-curvature="0"
         id="path4532"
         d="m 109.56769,100.25048 h -5.05636"
         style="fill:none;stroke:#000000;stroke-width:0.20268765px;stroke-linecap:butt;stroke-linejoin:miter;stroke-opacity:1" />
      <path
         sodipodi:nodetypes="cssccccsssssccssccccc"
         inkscape:connector-curvature="0"
         id="path4568"
         d="m 102.27018,100.14993 c -0.2341,-0.11103 -1.23152,-0.818888 -3.603751,-1.918763 -6.996225,-3.243766 -11.337231,-4.960476 -13.429521,-6.151928 l -0.518428,-0.29522 -0.90037,-0.4014 1.539968,-1.25006 0.198632,-0.151564 c 0.774729,-0.591152 1.589147,-1.14956 1.676591,-1.14956 0.263534,0 1.199615,0.40264 11.120994,4.783521 7.903405,3.489828 8.508415,3.754534 8.581335,3.754534 0.19943,0 1.78556,-0.665846 8.69966,-3.652048 8.0816,-3.490442 10.75523,-4.628837 10.87127,-4.628837 0.12949,0 1.87061,1.232644 2.42894,1.719598 0.14447,0.126001 0.8804,0.839006 0.83709,0.865737 -0.13325,0.08223 -5.51511,2.168068 -15.72636,6.929135 -1.88842,0.880492 -4.4638,2.339365 -4.4662,2.189585 l -0.97596,0.10006 -1.9184,0.10246 -3.16694,0.051 -0.68103,-0.71622 z"
         style="fill:#ffffff;fill-opacity:1;stroke:#fc0000;stroke-width:0.02701383;stroke-opacity:0" />
      <path
         inkscape:connector-curvature="0"
         id="path4540"
         d="m 107.01543,97.286582 19.50305,-8.437695 2.9696,2.109423 -19.92039,9.29217 h -5.05636 l -20.369868,-9.437648 3.130121,-2.2549 z"
         style="fill:none;stroke:#000000;stroke-width:0;stroke-linecap:butt;stroke-linejoin:miter;stroke-miterlimit:4;stroke-dasharray:none;stroke-opacity:0.10606061" />
      <path
         inkscape:connector-curvature="0"
         id="path4542"
         d="m 109.67276,117.14865 0.002,-16.7877 1.18227,-0.554725 c 2.21774,-1.040592 21.02082,-9.733443 21.15444,-9.779914 0.12385,-0.04307 0.13175,1.115042 0.11293,16.550239 l -0.0202,16.59655 -10.15283,4.87211 c -5.58406,2.67967 -10.63138,5.10139 -11.21627,5.38162 l -1.06344,0.50951 z"
         style="fill:#663713;fill-opacity:1;stroke-width:0.07640665" />
      <path
         inkscape:connector-curvature="0"
         id="path4544"
         d="m 109.69109,117.11562 0.0202,-16.74153 4.73532,-2.197177 c 12.24633,-5.682278 17.50149,-8.089662 17.55693,-8.042808 0.0332,0.02806 0.0513,7.475127 0.0401,16.549035 l -0.0203,16.49803 -11.11594,5.33619 c -6.11377,2.9349 -11.14311,5.337 -11.17631,5.33799 -0.0332,0.001 -0.0513,-7.53189 -0.0401,-16.73973 z"
         style="fill:#663713;fill-opacity:1;stroke-width:0.07640665" />
      <path
         inkscape:connector-curvature="0"
         id="path4546"
         d="m 109.6712,117.13289 v -16.72426 l 0.82265,-0.39637 c 0.74354,-0.358237 7.49401,-3.484665 17.67716,-8.187035 2.07471,-0.958056 3.79936,-1.719013 3.83257,-1.691012 0.0332,0.028 0.0513,7.476123 0.0401,16.551387 l -0.0203,16.50048 -11.11594,5.33438 c -6.11377,2.93391 -11.14303,5.3349 -11.17614,5.33554 -0.0331,6.1e-4 -0.0602,-7.52477 -0.0602,-16.72311 z"
         style="fill:#663713;fill-opacity:1;stroke-width:0.07640665" />
      <path
         inkscape:connector-curvature="0"
         id="path4550"
         d="M 93.117672,128.52366 81.901406,123.13259 V 106.52212 89.911639 l 0.822661,0.395946 c 0.452462,0.217773 5.508811,2.564038 11.23633,5.213927 l 10.413673,4.817978 v 16.7952 c 0,9.23736 -0.009,16.79179 -0.0201,16.78762 -0.011,-0.004 -5.067387,-2.43356 -11.236332,-5.39865 z"
         style="fill:#663713;fill-opacity:1;stroke-width:0.07640665" />
      <path
         inkscape:connector-curvature="0"
         id="path4552"
         d="m 104.28751,117.19998 v -16.80266 h 2.70088 2.70086 v 16.80266 16.80265 h -2.70086 -2.70088 z"
         style="fill:#572222;fill-opacity:1;stroke-width:0.08092331" />
    </g>
    <path
       style="fill:#ffffff;fill-opacity:1;stroke-width:0.35714287"
       d=""
       id="path4558"
       inkscape:connector-curvature="0"
       transform="scale(0.26458333)" />
    <path
       style="fill:#ffffff;fill-opacity:1;stroke-width:0.35714287"
       d=""
       id="path4560"
       inkscape:connector-curvature="0"
       transform="scale(0.26458333)" />
    <path
       style="fill:#ffffff;fill-opacity:1;stroke-width:0.12626907"
       d=""
       id="path4564"
       inkscape:connector-curvature="0"
       transform="scale(0.26458333)" />
  </g>
</svg>
