<?xml version="1.0" encoding="UTF-8" standalone="no"?>
<!-- Created with Inkscape (http://www.inkscape.org/) -->

<svg
   xmlns:dc="http://purl.org/dc/elements/1.1/"
   xmlns:cc="http://creativecommons.org/ns#"
   xmlns:rdf="http://www.w3.org/1999/02/22-rdf-syntax-ns#"
   xmlns:svg="http://www.w3.org/2000/svg"
   xmlns="http://www.w3.org/2000/svg"
   xmlns:sodipodi="http://sodipodi.sourceforge.net/DTD/sodipodi-0.dtd"
   xmlns:inkscape="http://www.inkscape.org/namespaces/inkscape"
   width="210mm"
   height="297mm"
   viewBox="0 0 210 297"
   version="1.1"
   id="svg4577"
   inkscape:version="0.92.4 (5da689c313, 2019-01-14)"
   sodipodi:docname="websitelogo.svg">
  <defs
     id="defs4571" />
  <sodipodi:namedview
     id="base"
     pagecolor="#ffffff"
     bordercolor="#666666"
     borderopacity="1.0"
     inkscape:pageopacity="0.0"
     inkscape:pageshadow="2"
     inkscape:zoom="3.959798"
     inkscape:cx="422.46011"
     inkscape:cy="667.90971"
     inkscape:document-units="mm"
     inkscape:current-layer="layer1"
     showgrid="false"
     inkscape:window-width="1920"
     inkscape:window-height="1017"
     inkscape:window-x="1912"
     inkscape:window-y="57"
     inkscape:window-maximized="1" />
  <metadata
     id="metadata4574">
    <rdf:RDF>
      <cc:Work
         rdf:about="">
        <dc:format>image/svg+xml</dc:format>
        <dc:type
           rdf:resource="http://purl.org/dc/dcmitype/StillImage" />
        <dc:title></dc:title>
      </cc:Work>
    </rdf:RDF>
  </metadata>
  <g
     inkscape:label="Layer 1"
     inkscape:groupmode="layer"
     id="layer1">
    <path
       style="fill:none;stroke:#022c45;stroke-width:1.86500001;stroke-linecap:round;stroke-linejoin:miter;stroke-miterlimit:4;stroke-dasharray:none;stroke-opacity:1"
       d="M 114.47878,120.5993 H 91.76871 c 0,0 -1.079726,0.11679 -1.57819,0.31504 -1.048337,0.41695 -2.241457,1.12866 -2.867547,1.79802 -1.03489,1.10642 -1.673903,2.71094 -1.672753,4.22592 0.0012,1.64114 0.685622,3.38816 1.819011,4.57508 0.468535,0.49067 1.438694,1.0017 2.240061,1.34109 0.566835,0.24006 1.78381,0.47792 1.78381,0.47792 h 22.985678"
       id="path4542"
       inkscape:connector-curvature="0"
       sodipodi:nodetypes="ccasssacc" />
    <path
       style="fill:none;stroke:#022c45;stroke-width:1.86500001;stroke-linecap:round;stroke-linejoin:miter;stroke-miterlimit:4;stroke-dasharray:none;stroke-opacity:1"
       d="m 110.05331,120.63867 c 0,0 -1.79721,0.33205 -2.61703,0.85812 -0.88211,0.56604 -1.69369,1.32224 -2.21545,2.23124 -0.57021,0.9934 -0.93356,2.17613 -0.88441,3.32049 0.0561,1.30617 0.60493,2.60205 1.33067,3.68949 0.47953,0.71853 1.18257,1.2875 1.91385,1.74734 0.72333,0.45483 2.48812,0.7919 2.48812,0.7919"
       id="path4563"
       inkscape:connector-curvature="0"
       sodipodi:nodetypes="csssssc" />
    <path
       style="fill:#022c45;fill-opacity:1;stroke:#022c45;stroke-width:0.33303571;stroke-linecap:round;stroke-miterlimit:4;stroke-dasharray:none;stroke-opacity:1"
       d="m 90.877997,132.20086 c -0.50746,-0.13008 -0.7827,-0.23561 -1.34654,-0.51625 -0.90964,-0.45274 -1.28026,-0.73285 -1.6903,-1.2775 -0.47539,-0.63146 -0.80369,-1.32915 -1.03378,-2.19699 -0.13857,-0.5226 -0.1728,-1.64712 -0.0662,-2.17639 0.2154,-1.07001 0.74255,-2.0875 1.43142,-2.76287 0.51741,-0.50727 1.80375,-1.27006 2.50924,-1.48796 0.76713,-0.23695 0.67209,-0.23421 8.15371,-0.23442 l 6.988943,-1.9e-4 -0.35502,0.36617 c -0.93326,0.96253 -1.62107,2.27382 -1.91447,3.64983 -0.12104,0.56772 -0.12094,1.98444 2e-4,2.55134 0.1402,0.65613 0.40836,1.40151 0.7394,2.05524 0.40419,0.79818 0.76959,1.34554 1.21265,1.81651 l 0.35792,0.38048 -7.174653,-0.002 -7.17464,-0.002 z"
       id="path5143"
       inkscape:connector-curvature="0" />
    <path
       style="fill:#000000;fill-opacity:0;stroke:#ffffff;stroke-width:1.86500001;stroke-linecap:round;stroke-linejoin:miter;stroke-miterlimit:4;stroke-dasharray:none;stroke-opacity:1"
       d="M 101.97483,127.0167 H 87.863715"
       id="path4534"
       inkscape:connector-curvature="0" />
    <path
       style="fill:#000000;fill-opacity:0;stroke:#ffffff;stroke-width:1.86500001;stroke-linecap:round;stroke-linejoin:miter;stroke-miterlimit:4;stroke-dasharray:none;stroke-opacity:1"
       d="m 91.611979,123.33397 v 7.24799"
       id="path4536"
       inkscape:connector-curvature="0" />
    <path
       style="fill:#022c45;fill-opacity:1;stroke:#022d46;stroke-width:0.62935883;stroke-linecap:round;stroke-miterlimit:4;stroke-dasharray:none;stroke-opacity:1"
       d=""
       id="path5235"
       inkscape:connector-curvature="0"
       transform="scale(0.26458333)" />
    <path
       style="fill:#022c45;fill-opacity:1;stroke:#022d46;stroke-width:1.86500001;stroke-linecap:butt;stroke-linejoin:miter;stroke-miterlimit:4;stroke-dasharray:none;stroke-opacity:1"
       d="m 99.895749,120.01324 v -8.76433"
       id="path5166"
       inkscape:connector-curvature="0" />
    <path
       style="fill:#022c45;fill-opacity:1;stroke:#022d46;stroke-width:0.26458332px;stroke-linecap:butt;stroke-linejoin:miter;stroke-opacity:1"
       d="m 101.05592,105.45388 -8.601541,4.66483 0.936892,1.90169 9.145699,-2.42931 z"
       id="path5170"
       inkscape:connector-curvature="0" />
    <path
       style="fill:#022c45;fill-opacity:1;stroke:#022d46;stroke-width:0.26458332px;stroke-linecap:butt;stroke-linejoin:miter;stroke-opacity:1"
       d="m 98.15942,110.75282 c 0,0 0.0098,0.67178 0.03563,1.02949 0.02132,0.29507 0.597214,0.55745 0.895724,0.55122 0.684557,-0.0143 1.681896,-0.21714 1.681896,-0.21714 0,0 0.43605,-0.2166 0.44432,-0.41174 0.0336,-0.79327 0.0746,-1.83545 0.0746,-1.83545"
       id="path5172"
       inkscape:connector-curvature="0"
       sodipodi:nodetypes="csscsc" />
    <path
       style="fill:#9494a8;fill-opacity:1;stroke:#9496a8;stroke-width:0.26458332px;stroke-linecap:butt;stroke-linejoin:miter;stroke-opacity:1"
       d="m 113.42516,124.86874 -1.09135,2.18271 1.07186,2.16321 -4.75517,-0.039 c 0,0 -0.24187,-0.62924 -0.33312,-0.95323 -0.0993,-0.3524 -0.2207,-0.70762 -0.23205,-1.07356 -0.013,-0.41918 0.0868,-0.83714 0.18914,-1.24384 0.0912,-0.36229 0.37603,-1.05579 0.37603,-1.05579 z"
       id="path5331"
       inkscape:connector-curvature="0"
       sodipodi:nodetypes="ccccssscc" />
    <path
       style="fill:#022c46;fill-opacity:1;stroke:#022d46;stroke-width:0.0111232;stroke-linecap:round;stroke-miterlimit:4;stroke-dasharray:none;stroke-opacity:1"
       d="m 105.23268,102.92216 a 3.4683742,3.4683742 0 0 0 -2.70217,1.29863 l 1.99213,5.564 a 3.4683742,3.4683742 0 0 0 0.71004,0.0744 3.4683742,3.4683742 0 0 0 3.46801,-3.46852 3.4683742,3.4683742 0 0 0 -3.46801,-3.46852 z"
       id="path6000"
       inkscape:connector-curvature="0" />
  </g>
</svg>
